<svg viewBox="0 0 200 259.909" xmlns="http://www.w3.org/2000/svg">
<path fill="rgb(255,235,210)" d="M196.058,149.345L195.995,151.101L195.940,152.856L195.895,154.612L195.863,156.371L195.848,158.134L195.852,159.904L195.876,161.684L195.923,163.475L195.994,165.280L196.090,167.102L196.211,168.944L196.357,170.808L196.527,172.696L196.720,174.611L196.934,176.556L197.168,178.532L197.418,180.540L197.681,182.584L197.953,184.663L198.229,186.778L198.506,188.931L198.777,191.119L199.036,193.344L199.279,195.603L199.497,197.895L199.686,200.218L199.837,202.568L199.944,204.942L200.000,207.336L199.998,209.746L199.932,212.165L199.794,214.590L199.580,217.012L199.281,219.427L198.895,221.826L198.415,224.203L197.837,226.551L197.157,228.861L196.374,231.127L195.484,233.342L194.487,235.496L193.381,237.585L192.168,239.600L190.848,241.537L189.424,243.388L187.897,245.148L186.272,246.814L184.553,248.381L182.744,249.845L180.852,251.206L178.882,252.460L176.840,253.608L174.733,254.649L172.569,255.585L170.354,256.417L168.095,257.148L165.800,257.781L163.476,258.320L161.130,258.770L158.768,259.136L156.398,259.423L154.024,259.637L151.653,259.786L149.289,259.874L146.937,259.909L144.602,259.898L142.286,259.847L139.992,259.762L137.723,259.650L135.480,259.518L133.265,259.370L131.078,259.212L128.920,259.048L126.790,258.885L124.688,258.724L122.613,258.570L120.564,258.425L118.538,258.292L116.534,258.173L114.551,258.068L112.586,257.978L110.637,257.904L108.703,257.846L106.780,257.801L104.866,257.770L102.961,257.750L101.061,257.740L99.166,257.737L97.272,257.739L95.380,257.742L93.488,257.744L91.595,257.742L89.700,257.732L87.803,257.711L85.903,257.674L84.000,257.620L82.095,257.543L80.188,257.441L78.280,257.310L76.372,257.146L74.465,256.947L72.559,256.710L70.658,256.430L68.762,256.107L66.873,255.737L64.993,255.318L63.125,254.848L61.270,254.326L59.431,253.750L57.610,253.119L55.809,252.433L54.030,251.690L52.276,250.892L50.549,250.038L48.850,249.128L47.183,248.164L45.547,247.147L43.946,246.079L42.380,244.960L40.851,243.793L39.359,242.579L37.906,241.322L36.492,240.024L35.118,238.687L33.783,237.315L32.488,235.909L31.232,234.472L30.015,233.008L28.837,231.519L27.696,230.007L26.592,228.476L25.524,226.928L24.490,225.365L23.489,223.790L22.521,222.204L21.584,220.609L20.676,219.008L19.796,217.401L18.943,215.791L18.116,214.177L17.314,212.562L16.535,210.945L15.778,209.329L15.044,207.712L14.330,206.097L13.636,204.482L12.962,202.868L12.307,201.254L11.671,199.642L11.053,198.031L10.453,196.421L9.871,194.811L9.307,193.201L8.762,191.591L8.234,189.982L7.724,188.372L7.232,186.761L6.758,185.150L6.302,183.539L5.865,181.926L5.445,180.312L5.044,178.696L4.661,177.080L4.297,175.462L3.950,173.843L3.620,172.223L3.309,170.601L3.014,168.978L2.736,167.353L2.474,165.726L2.228,164.098L1.997,162.469L1.781,160.837L1.580,159.203L1.392,157.567L1.217,155.929L1.055,154.288L0.906,152.644L0.768,150.996L0.641,149.345L0.526,147.689L0.422,146.029L0.329,144.363L0.246,142.692L0.175,141.015L0.115,139.332L0.067,137.642L0.031,135.944L0.009,134.239L0.000,132.526L0.006,130.806L0.029,129.077L0.069,127.340L0.129,125.596L0.209,123.843L0.311,122.084L0.437,120.318L0.590,118.545L0.770,116.768L0.980,114.986L1.222,113.200L1.497,111.413L1.807,109.625L2.155,107.838L2.542,106.053L2.969,104.272L3.437,102.497L3.948,100.729L4.503,98.970L5.102,97.222L5.745,95.486L6.433,93.764L7.166,92.057L7.942,90.367L8.762,88.694L9.624,87.039L10.527,85.403L11.469,83.786L12.449,82.188L13.464,80.608L14.512,79.047L15.592,77.502L16.699,75.973L17.833,74.458L18.990,72.954L20.168,71.460L21.364,69.972L22.576,68.487L23.802,67.003L25.040,65.516L26.288,64.022L27.544,62.518L28.808,61.000L30.078,59.464L31.355,57.907L32.638,56.325L33.928,54.716L35.225,53.076L36.531,51.403L37.848,49.696L39.178,47.952L40.522,46.171L41.884,44.353L43.268,42.498L44.676,40.608L46.111,38.685L47.579,36.731L49.081,34.751L50.623,32.748L52.208,30.730L53.839,28.701L55.520,26.668L57.255,24.641L59.044,22.626L60.892,20.633L62.800,18.673L64.770,16.754L66.801,14.888L68.894,13.085L71.049,11.357L73.265,9.713L75.539,8.165L77.869,6.723L80.251,5.398L82.682,4.199L85.156,3.136L87.670,2.216L90.216,1.447L92.788,0.836L95.380,0.388L97.985,0.108L100.596,-0.000L103.204,0.064L105.802,0.303L108.384,0.716L110.940,1.300L113.465,2.054L115.952,2.973L118.393,4.051L120.782,5.284L123.115,6.662L125.386,8.179L127.591,9.824L129.727,11.589L131.790,13.463L133.779,15.434L135.692,17.493L137.528,19.627L139.289,21.825L140.974,24.076L142.587,26.368L144.128,28.691L145.600,31.034L147.008,33.387L148.355,35.740L149.645,38.085L150.884,40.413L152.075,42.718L153.224,44.992L154.337,47.229L155.417,49.426L156.472,51.578L157.505,53.682L158.521,55.735L159.525,57.736L160.522,59.685L161.515,61.582L162.507,63.426L163.503,65.221L164.504,66.967L165.512,68.667L166.530,70.325L167.559,71.943L168.599,73.525L169.650,75.075L170.712,76.597L171.785,78.096L172.866,79.576L173.955,81.040L175.050,82.494L176.147,83.941L177.244,85.386L178.339,86.831L179.428,88.281L180.507,89.738L181.574,91.206L182.624,92.688L183.654,94.185L184.661,95.699L185.640,97.233L186.589,98.787L187.505,100.361L188.383,101.957L189.222,103.575L190.019,105.214L190.772,106.873L191.478,108.553L192.137,110.252L192.746,111.969L193.306,113.703L193.815,115.451L194.274,117.212L194.684,118.984L195.044,120.766L195.357,122.556L195.623,124.351L195.845,126.150L196.025,127.952L196.166,129.754L196.269,131.555L196.340,133.354L196.380,135.150L196.393,136.942L196.383,138.729L196.355,140.510L196.310,142.287L196.255,144.058L196.192,145.824L196.125,147.586Z" />
</svg>